<svg version="1" xmlns="http://www.w3.org/2000/svg" width="682.667" height="682.667" viewBox="0 0 512.000000 512.000000"><path d="M227.9.4c-.3.4-2.4.9-4.5 1.1-4.6.6-16.6 4.1-21.1 6.1-1.8.8-5 2.2-7 3.1-15.7 7-35.2 23.9-49.2 42.8-11.9 16-25 40.1-33.2 61.1-3.3 8.4-4.6 10.1-11.5 14.9-3.1 2.1-10 8.9-17.3 17-7.5 8.3-14.7 24.9-15.7 36.3-.8 9.2.8 16.7 5.8 27 11.3 23.1 33.1 34.3 67.8 34.6l14.5.2 7.5 5.5c14.5 10.8 41.3 24.9 47 24.9 2.5 0 2.5 1.5 0 5-6.9 9.7-7.5 22.3-1.3 26.8l2.6 1.9-3.4 4.4c-1.9 2.4-3.6 4.6-3.9 4.9-.3.3-1.7 2.3-3.1 4.5-6.9 10.8-6.8 18.3.1 24.1 4.6 4 7 11.1 6.6 19.6-.2 4-1.1 9.2-2 11.6l-1.5 4.3 10.4-5.5c5.8-3.1 10.5-5.5 10.6-5.3 0 .1.2 1 .4 2.1 1.4 7.1 3.4 13.5 7.3 22.6l4.4 10.5.2 28.5c.1 15.7.5 29.1.9 29.8.5.8-.3 2.2-2.3 3.8-4.4 3.7-9 12.1-9 16.5 0 6.3 4.2 9.8 13.6 11.4 4.1.6 15.5-2.6 20.2-5.8 5.6-4 6.6-6.1 11.6-24.2.9-3.4 1.8-5.5 2.4-5.5.4.1 2.4 1.6 4.5 3.4 3.4 3 3.7 3.8 3.6 8-.1 2.5-.6 4.6-1 4.6-1.9 0-8.4 7.9-11 13.3-4.4 9.3-2.5 15.3 5.9 19.3 4.7 2.2 6.5 2.6 11.7 2.2 7.1-.6 16.6-4.2 21.7-8.3 4.8-3.8 7.4-9.3 8.9-19 .7-4.4 1.5-8.3 1.8-8.7.3-.4 2-.1 3.6.6 1.7.7 6.4 2.3 10.5 3.6 4.1 1.2 8.1 2.4 8.8 2.6.6.2 1.2 1.7 1.2 3.3 0 3.1 3 6.1 6.1 6.1 1 0 3 1.1 4.6 2.4 4.6 3.8 11.4 5.2 16.3 3.2 12.5-5.1 28.8-23.4 31.6-35.6.8-3.6 2.4-11.1 3-14 .3-1.4.7-5.2.8-8.4l.2-5.9 6-1.3c16.7-3.5 26.6-12.5 28.2-25.7.4-3.7.3-4-1.2-2.8-.9.7-1.6 1.9-1.6 2.5 0 1.8-10 11.9-15.3 15.5-4.9 3.4-15.6 8.6-16.2 8-.2-.2-.6-2.4-1-4.9-3.8-26.1-13.3-47.5-29.4-66.7-7.4-8.8-13-14.5-19.6-19.9-9-7.3-16.5-15.7-15.2-17 .3-.3 3.4 1.5 7 3.9 8.9 6.1 15.2 8.1 25.7 8 7.9-.1 21.5-3.3 25.7-6.1 1-.6.1-2.5-3.2-7.2-23.7-33.6-45.7-53-71.9-63l-6.9-2.7 4.6-3.1c8.3-5.6 11.2-7.7 11.5-8.5.7-1.5 2.4-.6 6 3 24.9 25.2 52.5 31.2 72.7 15.9 18.8-14.3 26.4-42.5 17-63.1-1-2.2-3.8-8.3-6.3-13.5-2.4-5.2-6.9-15.1-9.9-22s-6.4-14.5-7.4-16.9c-1.1-2.4-2.9-6.6-4-9.3-3.1-8-11.1-25-13.4-28.8-1.2-1.9-4.6-7.6-7.5-12.5-12.3-20.6-31.8-47.4-41.4-57-5.4-5.3-15.3-11.9-26.6-17.8-11.9-6.2-32.8-14.5-41-16.3-13.1-3-18.4-3.7-31-4.1-8-.3-14.8-.2-15.1.1z"/></svg>