<svg id="图层_1" data-name="图层 1" xmlns="http://www.w3.org/2000/svg" viewBox="0 0 25 25"><defs><style>.cls-1{fill:#e70012;}.cls-2{fill:none;}.cls-3{fill:#fff;}</style></defs><title>switch</title><rect class="cls-1" width="25" height="25"/><path class="cls-2" d="M727.75,445.75h24v24h-24Z" transform="translate(-727.25 -445.25)"/><path class="cls-3" d="M741.89,466.75c-.1,0-.15-.06-.14-.13V448.86a.11.11,0,0,1,.12-.11h3.27a4.6,4.6,0,0,1,4.61,4.61v8.78a4.77,4.77,0,0,1-4.91,4.61h-3Zm3.28-10.31a1.83,1.83,0,1,0,1.82,1.83A1.83,1.83,0,0,0,745.17,456.44Zm-11.42-2.67a1.7,1.7,0,1,1,1.7,1.7,1.7,1.7,0,0,1-1.7-1.7Zm5.87-5c.09,0,.14.06.13.13v17.74a.13.13,0,0,1-.13.13h-4.26a4.6,4.6,0,0,1-4.61-4.61h0v-8.78a4.6,4.6,0,0,1,4.61-4.61Zm-.87,16v-15H736a3.35,3.35,0,0,0-2.32.93,3,3,0,0,0-1,2.22v8.7a3,3,0,0,0,1,2.22,3.25,3.25,0,0,0,2.32.93Z" transform="translate(-727.25 -445.25)"/></svg>