<svg xmlns="http://www.w3.org/2000/svg" xmlns:xlink="http://www.w3.org/1999/xlink" viewBox="0 0 59.78 60" width="28" height="28"><defs><style>.cls-1{fill:#fffbf1;stroke:#522c23;stroke-miterlimit:10;stroke-width:3px;}.cls-2{fill:url(#Gradient_6);}.cls-3{fill:url(#Gradient_7);}</style><linearGradient id="Gradient_6" x1="29.89" y1="5.02" x2="29.89" y2="44.27" gradientUnits="userSpaceOnUse"><stop offset="0" stop-color="#efb10f"/><stop offset="0.99" stop-color="#ee6d01"/></linearGradient><linearGradient id="Gradient_7" x1="29.89" y1="5.02" x2="29.89" y2="44.27" gradientUnits="userSpaceOnUse"><stop offset="0" stop-color="#efb10f"/><stop offset="0.23" stop-color="#efa80d"/><stop offset="0.6" stop-color="#ee8e08"/><stop offset="0.99" stop-color="#ee6d01"/></linearGradient></defs><path class="cls-1" d="M51.38,1.5H8.4A6.9,6.9,0,0,0,1.5,8.4v37a6.9,6.9,0,0,0,6.9,6.9H25.55l3.2,5.54a1.31,1.31,0,0,0,2.28,0l3.2-5.54H51.38a6.9,6.9,0,0,0,6.9-6.9V8.4A6.9,6.9,0,0,0,51.38,1.5Z"/><circle class="cls-2" cx="29.89" cy="42.01" r="3.65"/><path class="cls-3" d="M33.21,33a3.32,3.32,0,1,1-6.64,0L25.41,10.63a4.48,4.48,0,1,1,9,0Z"/></svg>