<svg xmlns="http://www.w3.org/2000/svg" viewBox="0 0 30.44 24.98" width="16" height="16"><defs><style>.cls-1{fill:#c9d7cd;}.cls-2{fill:#aaa;}</style></defs><path class="cls-1" d="M.86,13.2c-.45-7.86,7.2-11,13.37-7.82.66.35,1.25,1,1.83,1.06s1-.57,1.46-1C21.15,2.71,27.23,4.56,29.31,7c2.5,3,2.68,8.58.16,12.06-3.15,4.35-7.43,7.29-12.2,9.63a2.82,2.82,0,0,1-2.51.09C10,26.18,5.36,23.38,2.21,18.75A9.07,9.07,0,0,1,.86,13.2Z" transform="translate(-0.84 -4.1)"/><path class="cls-2" d="M29,13.6v.1a9.18,9.18,0,0,1-2.42,5.48,43.25,43.25,0,0,1-9.46,7.07c-1.1.67-1.33.92-2.88-.07-3.7-2.33-7.39-4.68-10.06-8.34-1.81-2.48-2.21-7.31.67-9.9,2.44-2.19,6.52-2.05,9.37.23.77.62,1.3,1.15,1.79,1.14s1-.61,1.61-1.19A6.48,6.48,0,0,1,25.31,7C28.08,8.3,29,10.57,29,13.6Z" transform="translate(-0.84 -4.1)"/></svg>