<svg xmlns="http://www.w3.org/2000/svg" viewBox="0 0 597.51 168.08"><defs><style>.a{fill:#388060;}.b{fill:#fff;}.c{fill:#287850;}.d{fill:#66ba00;}.e{fill:#887810;}.f{fill:#f0d000;}</style></defs><circle class="a" cx="142.39" cy="65.97" r="54.44"/><circle class="a" cx="217.36" cy="104.9" r="54.44"/><circle class="a" cx="419.22" cy="68.85" r="54.44"/><circle class="a" cx="498.52" cy="99.13" r="54.44"/><circle class="a" cx="306.8" cy="80.44" r="61.69"/><circle class="a" cx="69.66" cy="69.66" r="69.66"/><circle class="a" cx="142.44" cy="106.39" r="61.69"/><circle class="a" cx="270.64" cy="91.85" r="47.16"/><circle class="a" cx="213.17" cy="70.69" r="58"/><circle class="a" cx="343.61" cy="69.66" r="69.66"/><circle class="a" cx="419.27" cy="104.95" r="61.69"/><circle class="a" cx="550.36" cy="91.85" r="47.16"/><circle class="a" cx="490" cy="70.69" r="58"/><circle class="b" cx="142.36" cy="65.99" r="50.23"/><circle class="b" cx="217.34" cy="104.92" r="50.23"/><circle class="b" cx="419.19" cy="68.87" r="50.23"/><circle class="b" cx="498.49" cy="99.15" r="50.23"/><circle class="b" cx="306.76" cy="80.44" r="57.47"/><circle class="b" cx="69.61" cy="69.65" r="65.43"/><circle class="b" cx="142.4" cy="106.39" r="57.47"/><circle class="b" cx="270.64" cy="91.9" r="42.98"/><circle class="b" cx="213.12" cy="70.68" r="54.49"/><circle class="b" cx="343.56" cy="69.65" r="65.43"/><circle class="b" cx="419.23" cy="104.95" r="57.47"/><circle class="b" cx="550.36" cy="91.9" r="42.98"/><circle class="b" cx="489.95" cy="70.68" r="54.49"/><circle class="c" cx="143.76" cy="67.46" r="43.25"/><circle class="c" cx="218.74" cy="106.39" r="43.25"/><circle class="c" cx="420.59" cy="70.35" r="43.25"/><circle class="c" cx="499.89" cy="100.62" r="43.25"/><circle class="c" cx="308.13" cy="81.88" r="50.46"/><circle class="d" cx="140.88" cy="64.58" r="43.25"/><circle class="d" cx="215.85" cy="103.51" r="43.25"/><circle class="d" cx="417.71" cy="67.46" r="43.25"/><circle class="d" cx="497.01" cy="97.74" r="43.25"/><circle class="d" cx="305.24" cy="79" r="50.46"/><circle class="e" cx="70.95" cy="71.07" r="58.39"/><circle class="e" cx="143.76" cy="107.83" r="50.46"/><circle class="e" cx="272.08" cy="93.41" r="36.05"/><circle class="e" cx="214.5" cy="72.14" r="47.49"/><circle class="e" cx="344.89" cy="71.07" r="58.39"/><circle class="e" cx="420.59" cy="106.39" r="50.46"/><circle class="e" cx="551.8" cy="93.41" r="36.05"/><circle class="e" cx="491.33" cy="72.14" r="47.49"/><circle class="f" cx="68.06" cy="68.18" r="58.39"/><circle class="f" cx="140.88" cy="104.95" r="50.46"/><circle class="f" cx="269.2" cy="90.53" r="36.05"/><circle class="f" cx="211.61" cy="69.25" r="47.49"/><circle class="f" cx="342.01" cy="68.18" r="58.39"/><circle class="f" cx="417.71" cy="103.51" r="50.46"/><circle class="f" cx="548.91" cy="90.53" r="36.05"/><circle class="f" cx="488.44" cy="69.25" r="47.49"/><path class="b" d="M63,93.78c0,2.66-1.3,4-3.9,4H43.38c-2.59,0-3.89-1.32-3.89-4V75.36c-.41.63-.8,1.21-1.17,1.73a19.37,19.37,0,0,0-1.08,1.64c-1.27,2-2.48,1.64-3.64-1.12a8.29,8.29,0,0,1-.69-3.21,5.47,5.47,0,0,1,.87-2.94,41,41,0,0,0,5.84-11.59,123,123,0,0,0,4.45-17.56H36.81c-2.08,0-3.12-1.09-3.12-3.29s1-3.29,3.12-3.29H62q3.2,0,3.2,3.29c0,2.2-1.07,3.29-3.2,3.29H50.73q-1.29,4.75-2.46,9.39t-2.38,9.56H59.12c2.6,0,3.9,1.29,3.9,3.89Zm-7.36-2.51a1,1,0,0,0,1.13-1.12V68.69c0-.69-.38-1-1.13-1H45.72V90.15c0,.75.34,1.12,1,1.12Zm50.35-49q3.28,0,3.29,3.46,0,3.28-3.29,3.29H77.29c-.75,0-1.12.4-1.12,1.21V64.72q0,28.89-9.09,40.66v-.09q-1.55,2.68-4.67.6t-1.21-4.67A23.36,23.36,0,0,0,64.79,95a48,48,0,0,0,2.47-8.69,104.92,104.92,0,0,0,1.42-10.43c.32-3.6.48-7.34.48-11.2V46.29q0-4,3.89-4h14.1l-3.63-6.06Q81.8,33.49,84.9,32.1t4.68,1.3l3.63,5.71a4.06,4.06,0,0,1-.43,3.2Z"/><path class="b" d="M135.25,81.07q-1.8,5.19-3.93,9.92a84.91,84.91,0,0,1-4.72,9H165q3.26,0,3.25,3.32v27q0,3.25-3.25,3.25H123.43q-3.32,0-3.32-3.25V109.69a57.5,57.5,0,0,1-5.33,6.2,59.87,59.87,0,0,1-5.62,5,1.88,1.88,0,0,1-1.23.29,1.77,1.77,0,0,1-1.08-.51L103.39,117a56.85,56.85,0,0,0,8.18-7.21,63.33,63.33,0,0,0,6.88-8.8A100.28,100.28,0,0,0,124,91.31a76.57,76.57,0,0,0,4.22-10.24H109.37c-1.73,0-2.59-1-2.59-3.1s.86-3.17,2.59-3.17h60.85c1.77,0,2.66,1.06,2.66,3.17s-.89,3.1-2.66,3.1Zm26.39,26c0-.67-.29-1-.87-1H126.46v20.4c0,.63.33.94,1,.94h33.3c.58,0,.87-.31.87-.94Z"/><path class="b" d="M254.53,66.06q.47-2,3-1.56c1.66.35,2.25,1.19,1.79,2.54l-2.13,6h6.46c1.73,0,2.59.88,2.59,2.65V107a2.29,2.29,0,0,1-2.59,2.59H249.11c-1.77,0-2.65-.86-2.65-2.59V75.69A2.34,2.34,0,0,1,249.11,73h3.69Zm7.33,22.32V78.11q0-.75-.69-.75h-9.58a.66.66,0,0,0-.75.75V88.38Zm-11,16.2q0,.81.75.81h9.58q.69,0,.69-.81V92.65h-11Zm40-31.72a2.33,2.33,0,0,1,2.6,2.66v.69c-.23,6.23-.48,11.51-.72,15.86s-.51,7.78-.78,10.32a39.56,39.56,0,0,1-1,6.06,11.68,11.68,0,0,1-1.45,3.57,6.17,6.17,0,0,1-4.55,2.31,6.3,6.3,0,0,1-1.27.12H280.4a14.44,14.44,0,0,1-1.87-.12,3.22,3.22,0,0,1-2.89-2.25c-.5-1.58,0-2.34,1.56-2.31.61.08,1.44.14,2.48.18s2.31,0,3.81,0a2.69,2.69,0,0,0,2.07-.69q1.33-1.32,2-8.48.41-3.63.69-9.28t.58-13.5a.66.66,0,0,0-.75-.75H275.3q-1.21,3-2.28,5a18,18,0,0,1-1.93,3.09,2,2,0,0,1-3.12.4,2.09,2.09,0,0,1-.75-3,30.41,30.41,0,0,0,4-7,63.72,63.72,0,0,0,3.06-9.75c.27-1.38,1.17-1.88,2.71-1.5s2.08,1.2,1.73,2.54l-1.79,5.88Zm-7.27,23.65a2.15,2.15,0,0,1,.29,1.59,2.41,2.41,0,0,1-1.09,1.41,2.66,2.66,0,0,1-1.76.37,2,2,0,0,1-1.36-.89q-1.61-2.43-3.23-4.93c-1.07-1.67-2.15-3.32-3.23-4.93a1.68,1.68,0,0,1,.69-2.77,2,2,0,0,1,3,.58Z"/><path class="b" d="M333.32,75.5c2-.52,3.17.35,3.46,2.6a3.35,3.35,0,0,1-.57,2.46,4,4,0,0,1-2,1.43L307,89.78a2.91,2.91,0,0,1-2.42-.31,4.35,4.35,0,0,1-1.48-2.55,3.54,3.54,0,0,1,.26-2.81,3.66,3.66,0,0,1,2-1.51L315.75,80V45.74h-9.08q-3.1,0-3.11-3.46t3.11-3.37h25.69q3.21,0,3.21,3.37t-3.21,3.46h-9.68V78.27Zm39.44-24.83q-4.41,20.85-13.14,33.14Q368,94.36,378,98c2,.87,2.19,2.34.51,4.42a6.84,6.84,0,0,1-2.55,1.81,3,3,0,0,1-2.55-.08,41.35,41.35,0,0,1-9.69-5.76,50.61,50.61,0,0,1-8.74-8.95A56.89,56.89,0,0,1,344,98.21a69.93,69.93,0,0,1-12.54,6.27c-1.85.69-3.43,0-4.76-2.07-1.38-2.25-1-3.72,1-4.42A53.44,53.44,0,0,0,350.7,83.63a85.6,85.6,0,0,1-5.71-11,100.6,100.6,0,0,1-4.58-13.36q-1.47,2.76-2.64,4.67t-1.86,2.85q-1.91,2.34-5,.52-2.85-2-1.21-4.58Q339,52.58,344,31.38q.78-3.19,4.32-2.42c2.31.52,3.17,1.76,2.6,3.72l-3.55,11.16h29.24q3.29,0,3.29,3.37t-3.29,3.46Zm-26.55,0c-.75,0-1,.35-.87,1a107.54,107.54,0,0,0,4.15,13.93,71.76,71.76,0,0,0,5.8,11.94,62.85,62.85,0,0,0,6-12.07,92.31,92.31,0,0,0,4.15-14.84Z"/><path class="b" d="M441.86,79.78a9,9,0,0,1,4.18.93,2.27,2.27,0,0,1,1,3.32,36,36,0,0,1-4.26,7.86,66.23,66.23,0,0,1-6.7,8.07,46.45,46.45,0,0,0,14.56,8.87q2.39,1.08.51,3.75c-1.21,1.49-2.57,2-4.11,1.58v18.53c0,2.16-1.08,3.25-3.25,3.25H419.51c-2.21,0-3.32-1.09-3.32-3.25V114.31a2.9,2.9,0,0,0-.43.25,2.9,2.9,0,0,1-.43.25,2.49,2.49,0,0,1-3.61-.93l-.07-.08v6.92q0,3.18-3.24,3.18H390.6q-3.24,0-3.24-3.25V79.85q0-3.31,3.24-3.32h17.81q3.24,0,3.24,3.32V91.46a46.5,46.5,0,0,0,7.71-8,36.57,36.57,0,0,0,5.05-9.08c.67-1.59,2-2.11,3.89-1.59A2.7,2.7,0,0,1,430.18,74a2.29,2.29,0,0,1,0,1.95q-.51,1-1.05,2c-.36.68-.71,1.37-1,2.1Zm-44.7,2h-4a.89.89,0,0,0-1,1v14h5.05Zm-5.05,20.25v15.5c0,.63.34.94,1,.94h4V102.05Zm14.57-5.26v-14a.89.89,0,0,0-1-1h-4.11v15Zm-5.12,21.7h4.11c.67,0,1-.31,1-.94v-15.5h-5.12ZM411.65,95.2v14.93a69.27,69.27,0,0,0,8.69-4.4,47.7,47.7,0,0,0,7.75-5.84A66.51,66.51,0,0,1,421,90.52c-1,1.2-1.85,2.22-2.66,3.06a13.37,13.37,0,0,1-2.24,1.91,4.17,4.17,0,0,1-4,.15Zm31.29,16.73q-3-1.8-5.7-3.75a62.28,62.28,0,0,1-5.26-4.32,55.15,55.15,0,0,1-5.33,4.28c-1.88,1.33-3.82,2.59-5.84,3.79Zm-21,17.59c0,.63.34.94,1,.94h17.37c.58,0,.87-.31.87-.94V117.41H422Zm17.81-43.69c.19-.43,0-.65-.44-.65H424.92l-.51.94a46.06,46.06,0,0,0,3.43,5.19,59,59,0,0,0,4.14,4.9q2.75-3,4.72-5.51A26.48,26.48,0,0,0,439.77,85.83Z"/><path class="b" d="M518.91,46.36c0,1.82-.78,2.72-2.34,2.72H491.92l-2.4,9.35h19.72c2,0,3,1,3,3V94.89c0,2-1,2.92-3,2.92H470.31a2.58,2.58,0,0,1-2.92-2.92V61.41c0-2,1-3,3-3h13.3l1.81-9.35H462.14c-1.56,0-2.34-.9-2.34-2.72s.78-2.79,2.34-2.79h54.43Q518.91,43.57,518.91,46.36ZM506.32,75.43V64.66a.75.75,0,0,0-.84-.85h-31.6a.75.75,0,0,0-.84.85V75.43ZM473,91.78a.74.74,0,0,0,.84.84h31.6a.74.74,0,0,0,.84-.84V80.62H473Z"/><path class="b" d="M545.67,92.88a2.58,2.58,0,0,1-.17,3.34c-.93,1.19-1.81,1.21-2.66.06-.65-1.08-1.27-2-1.84-2.91s-1.2-1.86-1.85-3v22.83c0,1.43-.77,2.14-2.31,2.14s-2.3-.71-2.3-2.14V92.13a67.77,67.77,0,0,1-3.38,7.06,29,29,0,0,1-3.08,4.59q-1.33,1.78-2.65-.58a4.34,4.34,0,0,1-.41-1.73,2.71,2.71,0,0,1,.64-1.73,20,20,0,0,0,1.81-2.42q1.06-1.62,2.34-3.92,1-2,2.16-4.5c.75-1.66,1.39-3.21,1.93-4.67h-6.57c-1.39,0-2.08-.75-2.08-2.25s.69-2.25,2.08-2.25h7.21V71.94l-1.79.35-2,.4-1.53.29a2.4,2.4,0,0,1-2.88-1.5q-.69-2.07,1.44-2.37c3.31-.53,6.16-1.08,8.57-1.64a27.45,27.45,0,0,0,5.62-1.82c1.19-.5,2.27-.13,3.23,1.1a1.81,1.81,0,0,1,.55,1.59,1.56,1.56,0,0,1-1.18,1L539.15,71v8.71h6.06q2.13,0,2.13,2.25t-2.13,2.25h-6.06v.51Zm30.57,4.61c.19,1.5-.39,2.35-1.74,2.54l-5.07.8v12.4c0,1.43-.77,2.14-2.31,2.14s-2.36-.71-2.36-2.14V101.58q-3.93.7-7.93,1.36c-2.67.44-5.34.89-8,1.36-1.35.15-2.15-.5-2.42-2s.31-2.4,1.61-2.59l16.73-2.65V66.35c0-1.46.79-2.2,2.36-2.2s2.31.74,2.31,2.2v30l4.33-.7a2.57,2.57,0,0,1,1.7.32A2,2,0,0,1,576.24,97.49ZM560.09,89q1.44,1.56-.18,3.18a1.94,1.94,0,0,1-3,.05A14.54,14.54,0,0,0,554,89.36c-.92-.77-1.7-1.4-2.33-1.88a12.12,12.12,0,0,0-1.53-1q-1.85-1.44-.35-2.76h0a2.28,2.28,0,0,1,1.52-.75,2.47,2.47,0,0,1,1.65.52,48.28,48.28,0,0,1,4.41,2.91A16.25,16.25,0,0,1,560.09,89Zm1.38-14.59c1,1,.87,2-.29,3.12s-2,1-2.88-.12q-1.5-2.13-6.23-5.42c-1.12-.77-1.17-1.65-.17-2.65a2.34,2.34,0,0,1,1.55-.67,3.2,3.2,0,0,1,1.68.44,23.27,23.27,0,0,1,6.34,5.36Z"/><path class="b" d="M188.18,52.13c-1,1.6-1.87,3-2.63,4.06a15.62,15.62,0,0,1-2.1,2.56v-.06q-1.69,1.81-3.12-.78a3.81,3.81,0,0,1-.65-2,3.11,3.11,0,0,1,.78-2.08,21.35,21.35,0,0,0,4.09-5,30,30,0,0,0,2.79-6.33,2.57,2.57,0,0,1,1.23-1.59,2.43,2.43,0,0,1,2,0,2.83,2.83,0,0,1,1.56,1.17,1.81,1.81,0,0,1,0,1.75l-1.37,3.44H200a2.12,2.12,0,0,1,2.4,2.4,2.15,2.15,0,0,1-2.4,2.46Zm6.1,36.4,5.13-2.72a2,2,0,0,1,1.72-.2,2,2,0,0,1,.94,1.43,2.35,2.35,0,0,1-1.69,3l.06-.06-7.65,4.63a37,37,0,0,0-3.25,2.11h.07l-.71.78L187.73,96a3.53,3.53,0,0,1-.72-2,3.47,3.47,0,0,1,1-2.33l1.3-3.57V75.75H183a2.15,2.15,0,0,1-2.4-2.47,2.13,2.13,0,0,1,2.4-2.4h6.3V63.1h-3.12a2.1,2.1,0,0,1-2.34-2.4c0-1.65.78-2.47,2.34-2.47H199c1.56,0,2.34.82,2.34,2.47A2.1,2.1,0,0,1,199,63.1h-4.67v7.78h5.84a2.13,2.13,0,0,1,2.4,2.4,2.15,2.15,0,0,1-2.4,2.47h-5.84ZM233,81.46h1.42c1.65,0,2.47.78,2.47,2.34s-.82,2.33-2.47,2.33h-30.3a2.34,2.34,0,1,1,0-4.67h2.14V56.87c0-2,1-3,2.86-3h5.71a16.57,16.57,0,0,0,.39-1.72,15,15,0,0,1,.39-1.79H206c-1.55,0-2.33-.73-2.33-2.2A2,2,0,0,1,206,45.9h10.45l.65-3.37c.22-1.56,1.23-2.27,3-2.14s2.68.89,2.33,2.53c-.08.48-.19.95-.32,1.43a12.43,12.43,0,0,0-.32,1.55h11.42c1.59,0,2.4.76,2.4,2.28s-.81,2.2-2.4,2.2H220.75c-.17.61-.31,1.19-.42,1.75a11.69,11.69,0,0,1-.49,1.76H230.1c1.94,0,2.92,1,2.92,3ZM212,87.3a2.69,2.69,0,0,1,1.95-.84,3.47,3.47,0,0,1,1.95.71c1.47,1,1.6,2,.39,3.11a48.21,48.21,0,0,1-9.35,6.43H207a2.49,2.49,0,0,1-1.92.45,2.85,2.85,0,0,1-1.65-1.1c-1.13-1.17-1-2.16.39-3a42,42,0,0,0,4.74-2.85A25.81,25.81,0,0,0,212,87.36Zm16.09-28.68q0-.78-.84-.78H211.93a.69.69,0,0,0-.78.78v2.53h16.93Zm0,9v-3H211.15v3Zm-16.93,3.56v3.25h16.93V71.14Zm0,6.75v3.57h16.93V77.89Zm12.07,12.65q-2-1.49-.2-3.18a2.56,2.56,0,0,1,1.69-.81,4.35,4.35,0,0,1,2,.49q3.12,2,5.16,3.37a24.22,24.22,0,0,1,3,2.34h-.06c1.25,1.12,1.25,2.25,0,3.37a2.46,2.46,0,0,1-3.57.39Z"/></svg>