<?xml version="1.0" encoding="utf-8"?>
<!-- Generator: Adobe Illustrator 26.0.2, SVG Export Plug-In . SVG Version: 6.00 Build 0)  -->
<svg version="1.1" id="图层_1" xmlns="http://www.w3.org/2000/svg" xmlns:xlink="http://www.w3.org/1999/xlink" x="0px" y="0px"
	 viewBox="0 0 16 16" width="16" height="16" style="enable-background:new 0 0 16 16;" xml:space="preserve">
<style type="text/css">
	.st0{fill:#DEEADA;}
	.st1{fill:#AAAAAA;}
</style>
<path class="st0" d="M7,0.1c-0.9,0.1-0.5,7-0.5,7.5c-1.1-0.1-2.2,0-3.2,0.3C1.9,8.6,0,10.1,0.5,12.4S3,15.8,5.1,16
	c2.1,0.1,4.1-0.6,5.5-2.1c0.2-1.5,0.3-3,0.2-4.5V6.5c0-0.2,0.5,0.1,0.6,1.2s0.3,2,1,2.3c0.7,0.1,1.3-0.1,1.8-0.5
	c0.9-0.8,1.4-2,1.4-3.2C15.3,3.6,14-0.7,7,0.1z"/>
<path class="st1" d="M7.8,1.1c-0.3,0-0.2,4.7-0.3,7.1V9C6.3,8.6,5,8.6,3.9,9c-1.4,0.4-2.8,1.4-2.5,3.3s1.7,2.4,3.3,2.6
	c1.7,0.3,3.5-0.3,4.7-1.5c0.2-1.6,0.2-3.2,0.1-4.7c0-0.9,0-2.9,0.1-3.9c0-0.2,1.1,0.4,1.4,0.8c0.5,0.6,0.9,1.3,1.1,2
	c0,0.5,0,1.4,0.3,1.5c0.3,0,0.6-0.2,0.8-0.4c0.6-0.6,1-1.4,1.1-2.3C14.3,2.9,12,0.5,7.8,1.1z"/>
</svg>
