<svg xmlns="http://www.w3.org/2000/svg" viewBox="0 0 24 24" width="24" height="24"><defs><style>.cls-1{fill:#2aae67;}</style></defs><path class="cls-1" d="M18.57,13.71a.9.9,0,1,0,0-1.79.9.9,0,0,0,0,1.79Zm-4.42,0a.92.92,0,0,0,.9-.9.9.9,0,1,0-.9.9Zm6.57,5a.35.35,0,0,0-.18.37.27.27,0,0,0,0,.15c.1.41.29,1.08.29,1.1s0,.13,0,.18a.22.22,0,0,1-.22.22h0c-.05,0-.08,0-.13-.05l-1.45-.84a.79.79,0,0,0-.34-.1.36.36,0,0,0-.19,0,7.69,7.69,0,0,1-2.17.29c-3.66,0-6.6-2.45-6.6-5.5s2.94-5.51,6.6-5.51S23,11.55,23,14.6a5.15,5.15,0,0,1-2.28,4.15Zm-4-10.65h-.28c-4.17,0-7.6,2.86-7.6,6.51A6.06,6.06,0,0,0,9,16.2H8.93a9.82,9.82,0,0,1-2.59-.37.82.82,0,0,0-.22,0,.79.79,0,0,0-.42.12L4,16.93a.3.3,0,0,1-.14.05.27.27,0,0,1-.27-.27.65.65,0,0,1,0-.19s.25-.84.37-1.33c0,0,0-.12,0-.17a.54.54,0,0,0-.22-.44A6.13,6.13,0,0,1,1,9.6C1,6,4.57,3,9,3c3.77,0,6.93,2.17,7.72,5.1Zm-5.15.42a1,1,0,0,0,1-1,1,1,0,1,0-1,1Zm-5.26,0a1,1,0,0,0,1-1,1,1,0,1,0-1,1Z"/></svg>