<svg xmlns="http://www.w3.org/2000/svg" viewBox="0 0 24 24" width="24" height="24"><defs><style>.cls-1{fill:#e7162d;}.cls-2{fill:#fff;}.cls-3{fill:#ff9a34;}</style></defs><path class="cls-1" d="M17.52,11.38a3.32,3.32,0,0,1,2.67,3c0,2.77-4,6.24-10,6.24C5.67,20.62,1,18.41,1,14.77c0-1.9,1.2-4.1,3.28-6.18,2.77-2.77,6-4,7.22-2.81a2.54,2.54,0,0,1,.24,2.57c-.18.55.53.25.53.25,2.24-.94,4.19-1,4.9,0a2.32,2.32,0,0,1,0,2.2c-.17.4,0,.47.36.56Z"/><path class="cls-2" d="M10.24,19.32c3.64-.36,6.4-2.59,6.17-5s-3.38-4-7-3.67-6.41,2.59-6.17,5S6.6,19.68,10.24,19.32Z"/><path d="M6.16,14.44a4,4,0,0,1,4.45-1.94,2.71,2.71,0,0,1,2,3.8,3.92,3.92,0,0,1-4.69,2A2.7,2.7,0,0,1,6.16,14.44Z"/><path class="cls-2" d="M7.61,17a1.37,1.37,0,0,0,1.67-.54A1,1,0,0,0,8.88,15a1.37,1.37,0,0,0-1.64.55A1,1,0,0,0,7.61,17Z"/><path class="cls-2" d="M9.81,15.22a.54.54,0,0,0,.63-.23.37.37,0,0,0-.18-.55.52.52,0,0,0-.61.23A.38.38,0,0,0,9.81,15.22Z"/><path class="cls-3" d="M19.87,9.5a.72.72,0,1,1-1.38-.44h0a1.38,1.38,0,0,0-.28-1.36,1.4,1.4,0,0,0-1.32-.42A.72.72,0,0,1,16,6.71a.72.72,0,0,1,.55-.86A2.83,2.83,0,0,1,19.87,9.5Z"/><path class="cls-3" d="M16,2.93a5.82,5.82,0,0,1,6.76,7.49.84.84,0,0,1-1,.55h0a.84.84,0,0,1-.54-1.06,4.15,4.15,0,0,0-2.67-5.22,4.2,4.2,0,0,0-2.14-.11A.84.84,0,0,1,16,2.93Z"/></svg>