<svg xmlns="http://www.w3.org/2000/svg" xmlns:xlink="http://www.w3.org/1999/xlink" viewBox="0 0 400 400"><defs><style>.cls-1{fill:none;}.cls-2{fill:#e6e6e6;}.cls-3{clip-path:url(#clip-path);}.cls-4{fill:#a67c52;}.cls-5{fill:#f4f0eb;}.cls-6{fill:#c1272d;}.cls-7{fill:#333;}.cls-8{fill:#fff;}</style><clipPath id="clip-path"><path class="cls-1" d="M171.83,4.85h57.06c2.73.44,5.46,1,8.21,1.3,14.79,1.46,29.73,2,44.35,4.43,35.54,6,66.08,21.07,86.75,52.17,14.61,22,21.58,46.81,23.39,72.69,2,28.92,2.94,58,2.4,87-.42,22-2.2,44.2-6.34,65.74-9.13,47.48-36.14,80.57-83,95.68-18.59,6-37.77,8.53-57.19,9.69-6.2.37-12.38,1.07-18.57,1.62H171.83c-4.24-.51-8.49-1-12.74-1.52-15.59-1.8-31.42-2.44-46.74-5.6-45.53-9.38-78.29-34.65-94-79.73-6.81-19.54-9.55-39.83-10.86-60.39-.4-6.44-1.08-12.86-1.63-19.29V171.38c.5-4.27,1-8.53,1.51-12.8,1.79-15.64,2.44-31.53,5.58-46.9C22,67.35,46.07,34.77,89.4,18.48c20.36-7.66,41.64-10.62,63.22-12C159,6.09,165.43,5.41,171.83,4.85Z"/></clipPath></defs><path class="cls-2" d="M171.83,4.85h57.06c2.73.44,5.46,1,8.21,1.3,14.79,1.46,29.73,2,44.35,4.43,35.54,6,66.08,21.07,86.75,52.17,14.61,22,21.58,46.81,23.39,72.69,2,28.92,2.94,58,2.4,87-.42,22-2.2,44.2-6.34,65.74-9.13,47.48-36.14,80.57-83,95.68-18.59,6-37.77,8.53-57.19,9.69-6.2.37-12.38,1.07-18.57,1.62H171.83c-4.24-.51-8.49-1-12.74-1.52-15.59-1.8-31.42-2.44-46.74-5.6-45.53-9.38-78.29-34.65-94-79.73-6.81-19.54-9.55-39.83-10.86-60.39-.4-6.44-1.08-12.86-1.63-19.29V171.38c.5-4.27,1-8.53,1.51-12.8,1.79-15.64,2.44-31.53,5.58-46.9C22,67.35,46.07,34.77,89.4,18.48c20.36-7.66,41.64-10.62,63.22-12C159,6.09,165.43,5.41,171.83,4.85Z"/><g class="cls-3"><path class="cls-4" d="M185.52,358.81c13.69,4.95,25.17,12.48,33.79,22.45,0-.09,0-.17-.05-.26h46.49c-.48,4.45-.94,8.82-1.39,13.14h28.41c.52-.48,1.06-.95,1.61-1.43l8.63,1.43h25.26c-6-18.3-18.13-37.42-37.5-54.16a73.94,73.94,0,0,1-22.52-27.19c-5.89-8.48-11.22-19.58-15.91-33.6C236.83,313.76,213.77,339.37,185.52,358.81Z"/><path class="cls-4" d="M294.38,392.71c-.55.48-1.09,1-1.61,1.43H303Z"/><path class="cls-5" d="M183.05,392.93A171.72,171.72,0,0,1,172.66,367l-1,.61c.71,7.13,3.78,16.5,8.27,26.49H183C183,393.73,183.05,393.33,183.05,392.93Z"/><path class="cls-5" d="M186.25,394.14h35q-.81-6.3-2-12.88c-8.62-10-20.1-17.5-33.79-22.45q-6.27,4.31-12.86,8.23a171.72,171.72,0,0,0,10.39,25.89c0-.83,0-1.66,0-2.45Z"/><path class="cls-5" d="M183.05,392.93c0,.4,0,.8,0,1.21h.63C183.46,393.74,183.25,393.34,183.05,392.93Z"/><path class="cls-5" d="M186.25,394.14l-3.19-3.66c0,.79,0,1.62,0,2.45.2.41.41.81.61,1.21Z"/><path class="cls-6" d="M256.81,270.26c1.74,16.49,5.52,30.68,11.44,42.53,16.35,23.52,37.09,26.77,61,15.57-20.61-30.41-43.64-55.84-75-64.1a151.85,151.85,0,0,1-17.86,9.57Z"/><path class="cls-6" d="M171.51,363.22c-8.58-29.61-9.13-58.5-6.77-76.87l4.8-.84q-4.38-.88-8.78-2.18c-7.87,9.28-12,23.45-1.38,28.94-9.59,11.93-21.52,26-8,34.86,8.53,10.63,4.08,23.76,1.79,30.39q9.52-4.61,18.49-9.87A27.93,27.93,0,0,1,171.51,363.22Z"/><path class="cls-6" d="M236.33,273.83q-5.75,2.6-11.46,4.54a85.48,85.48,0,0,1-55.33,7.14l-4.8.84c-2.36,18.37-1.81,47.26,6.77,76.87.23-3.53,1.34-6.17,3.51-7.6a105.21,105.21,0,0,1,10.5,3.19c28.25-19.44,51.31-45.05,66.82-79.62,4.69,14,10,25.12,15.91,33.6-5.92-11.85-9.7-26-11.44-42.53Z"/><path class="cls-6" d="M171.51,363.22a27.93,27.93,0,0,0,.1,4.43l1-.61C172.26,365.77,171.87,364.49,171.51,363.22Z"/><path class="cls-6" d="M175,355.62c-2.17,1.43-3.28,4.07-3.51,7.6.36,1.27.75,2.55,1.15,3.82q6.59-3.92,12.86-8.23A105.21,105.21,0,0,0,175,355.62Z"/><path class="cls-4" d="M80.69,156.39c19.55,6.43,38.27-8.07,47-26l19.67-42.91c8.83-10.26,13.17-9.36,13.41,1.79l1.78,61.68c-.37,29.11,13.28,41.78,37.55,42,39.46,12.91,53.06,38.6,34,80.44-.68.42-1.35.82-2,1.21l3.48-.6a144.74,144.74,0,0,0,17.77-10l1,.26a188.89,188.89,0,0,0,16.92-11.88c54.76,60.75,101.59-.73,83.13-39.33-.94-2-14.29-29.69-26.47-59.33C313.4,118.73,277.8,72.1,270,67,192.13,16,114.09,22.82,67.31,147.8A74.9,74.9,0,0,0,44.4,169.08C53,162.94,74.16,154.25,80.69,156.39Zm106.17-.4c3.3-13.3,10.22-22.7,16.37-21.61,6.8,1.2,10.1,14.78,7.35,30.34s-10.48,27.19-17.29,26c-6.21-1.09-9.5-12.52-7.93-26.35a5.31,5.31,0,0,1-1.4-3.6A5.38,5.38,0,0,1,186.86,156ZM86.68,130.82c2.19-12.4,8.49-21.65,14.08-20.67s8.36,11.84,6.17,24.24S98.44,156,92.85,155.05c-4.82-.85-7.53-9-6.79-19.21a4.43,4.43,0,0,1,.57-4.71C86.65,131,86.66,130.92,86.68,130.82Z"/><path class="cls-4" d="M235.46,274l-3.48.6c-2.33,1.36-4.66,2.59-7,3.72Q230.16,276.46,235.46,274Z"/><path class="cls-4" d="M235.46,274l.87-.16a151.85,151.85,0,0,0,17.86-9.57l-1-.26A144.74,144.74,0,0,1,235.46,274Z"/><path class="cls-4" d="M224.87,278.37q5.72-2,11.46-4.54l-.87.16q-5.31,2.47-10.48,4.32Z"/><path class="cls-5" d="M177.5,284.12l1.25-.22c-23.49-2.36-46.62-12.55-69.43-29.73-73.68,6.15-90.92-47.66-64.92-85.09a11.82,11.82,0,0,0-3.46,3.3c-14.44,27-12,38-3.58,54.52C49,249.47,79.07,258,108.87,254.61c17.4,13.8,34.7,23.64,51.89,28.72.42-.5.86-1,1.3-1.45A155.17,155.17,0,0,0,177.5,284.12Z"/><path class="cls-5" d="M224,278.67a108,108,0,0,1-45.21,5.23l-1.25.22A108.74,108.74,0,0,0,224,278.67Z"/><path class="cls-5" d="M177.5,284.12a155.17,155.17,0,0,1-15.44-2.24c-.44.46-.88.95-1.3,1.45q4.4,1.29,8.78,2.18Z"/><path class="cls-5" d="M224.87,278.37l-.91.3a108.74,108.74,0,0,1-46.46,5.45l-8,1.39A85.48,85.48,0,0,0,224.87,278.37Z"/><path class="cls-5" d="M109.32,254.17c22.81,17.18,45.94,27.37,69.43,29.73L232,274.59c.68-.39,1.35-.79,2-1.21,19.1-41.84,5.5-67.53-34-80.44-24.27-.23-37.92-12.9-37.55-42l-1.78-61.68c-.24-11.15-4.58-12-13.41-1.79l-19.67,42.91c-8.68,17.95-27.4,32.45-46.95,26-6.53-2.14-27.68,6.55-36.29,12.69C18.4,206.51,35.64,260.32,109.32,254.17Zm-38.15-76.6c2.41-13.87,20.83-22.26,41.14-18.73s34.83,17.64,32.42,31.51-20.83,22.26-41.14,18.74S68.76,191.45,71.17,177.57Z"/><path class="cls-5" d="M224,278.67l1-.36c2.34-1.13,4.67-2.36,7-3.72l-53.23,9.31A108,108,0,0,0,224,278.67Z"/><path class="cls-5" d="M224,278.67l.91-.3.11-.06Z"/><path class="cls-7" d="M90.1,129.47a4.47,4.47,0,1,1-4,6.37c-.74,10.18,2,18.36,6.79,19.21,5.59,1,11.89-8.27,14.08-20.66s-.58-23.25-6.17-24.24-11.89,8.27-14.08,20.67c0,.1,0,.2-.05.31A4.46,4.46,0,0,1,90.1,129.47Z"/><path class="cls-8" d="M86.06,135.84c.11-1.53.3-3.11.57-4.71a4.43,4.43,0,0,0-.57,4.71Z"/><path class="cls-8" d="M90.1,138.41a4.47,4.47,0,1,0-3.47-7.28c-.27,1.6-.46,3.18-.57,4.71A4.45,4.45,0,0,0,90.1,138.41Z"/><path class="cls-7" d="M194.68,160.76a5.35,5.35,0,0,1-9.32,3.6c-1.57,13.83,1.72,25.26,7.93,26.35,6.81,1.2,14.55-10.43,17.29-26s-.55-29.14-7.35-30.34c-6.15-1.09-13.07,8.31-16.37,21.61a5.36,5.36,0,0,1,7.82,4.77Z"/><path class="cls-8" d="M185.94,160.37c.26-1.5.57-3,.92-4.38a5.38,5.38,0,0,0-2.9,4.77,5.31,5.31,0,0,0,1.4,3.6C185.51,163.05,185.7,161.72,185.94,160.37Z"/><path class="cls-8" d="M185.36,164.36a5.36,5.36,0,1,0,1.5-8.37c-.35,1.42-.66,2.88-.92,4.38C185.7,161.72,185.51,163.05,185.36,164.36Z"/><path class="cls-7" d="M103.59,209.09c20.31,3.52,38.73-4.86,41.14-18.74s-12.1-28-32.42-31.51-38.73,4.86-41.14,18.73S83.27,205.56,103.59,209.09Zm-8.12-48.33c2.46,0,4.46,1.2,4.46,2.68s-2,2.68-4.46,2.68S91,164.92,91,163.44,93,160.76,95.47,160.76Z"/><ellipse class="cls-8" cx="95.47" cy="163.44" rx="4.47" ry="2.68"/><path class="cls-4" d="M264.36,394.14c.45-4.32.91-8.69,1.39-13.14H219.26c0,.09,0,.17.05.26a68.85,68.85,0,0,1,8.81,12.88Z"/><path class="cls-4" d="M228.12,394.14a68.85,68.85,0,0,0-8.81-12.88q1.16,6.58,2,12.88Z"/></g></svg>