<svg xmlns="http://www.w3.org/2000/svg" xmlns:xlink="http://www.w3.org/1999/xlink" viewBox="0 0 400 400"><defs><style>.a{fill:none;}.b{fill:#e6e6e6;}.c{clip-path:url(#a);}.d{fill:#f4f0eb;}.e{fill:#c1272d;}.f{fill:#a67c52;}.g{fill:#333;}.h{fill:#fff;}</style><clipPath id="a"><path class="a" d="M205.44,395.13c-34.93,0-64.58,0-93.82-6.33-57-12.29-91.43-48.17-101.53-106-7.17-41.05-5.38-82.43-4.45-123.76a235.21,235.21,0,0,1,7.61-55.84C26.81,52.64,59.9,22.8,110.57,11.54A269.8,269.8,0,0,1,164,5.46c34-.63,68-1.64,101.9,2.2,25.65,2.91,50.25,9.27,72,23.84,28.24,18.91,43.16,46.51,50.52,78.87a240,240,0,0,1,5.88,48.91c.78,43.05,3.36,86.24-5.67,128.82C376.49,345.49,340.7,379.68,283,390,255.59,394.87,227.91,395.25,205.44,395.13Z"/></clipPath></defs><path class="b" d="M205.44,395.13c-34.93,0-64.58,0-93.82-6.33-57-12.29-91.43-48.17-101.53-106-7.17-41.05-5.38-82.43-4.45-123.76a235.21,235.21,0,0,1,7.61-55.84C26.81,52.64,59.9,22.8,110.57,11.54A269.8,269.8,0,0,1,164,5.46c34-.63,68-1.64,101.9,2.2,25.65,2.91,50.25,9.27,72,23.84,28.24,18.91,43.16,46.51,50.52,78.87a240,240,0,0,1,5.88,48.91c.78,43.05,3.36,86.24-5.67,128.82C376.49,345.49,340.7,379.68,283,390,255.59,394.87,227.91,395.25,205.44,395.13Z"/><g class="c"><path class="d" d="M224.86,382.25c-8.62-10-20.1-17.5-33.79-22.45q-6.27,4.31-12.86,8.23l-1,.61c.71,7.13,3.78,16.5,8.27,26.49h41.39Q226,388.83,224.86,382.25Z"/><path class="e" d="M259.74,265.25a153.13,153.13,0,0,1-17.86,9.57q-5.76,2.6-11.46,4.54a85.52,85.52,0,0,1-55.33,7.14q-4.38-.88-8.78-2.18c-7.87,9.28-12,23.45-1.38,28.94-9.59,11.93-21.52,26-8,34.86,8.53,10.63,4.08,23.76,1.79,30.39q9.51-4.62,18.49-9.87l1-.61q6.58-3.93,12.86-8.23c28.25-19.44,51.31-45.05,66.82-79.62,4.69,14,10,25.12,15.91,33.6,16.35,23.52,37.09,26.77,61,15.57C314.15,299,291.12,273.51,259.74,265.25Z"/><path class="f" d="M359.79,214c-.94-2-14.29-29.69-26.47-59.33-14.37-35-50-81.62-57.77-86.72-77.87-51-155.91-44.18-202.69,80.8A74.76,74.76,0,0,0,50,170.07c8.61-6.14,29.76-14.83,36.29-12.69,19.55,6.43,38.27-8.07,47-26l19.67-42.91c8.83-10.26,13.17-9.36,13.41,1.79l1.78,61.68c-.37,29.11,13.28,41.78,37.55,42,39.46,12.91,53.06,38.6,34,80.44l-2,1.21c-2.33,1.36-4.66,2.59-7,3.72l-.11.06q5.72-2,11.46-4.54a153.13,153.13,0,0,0,17.86-9.57,191,191,0,0,0,16.92-11.88C331.42,314.12,378.25,252.64,359.79,214ZM112.48,135.38C110.29,147.77,104,157,98.4,156c-4.82-.85-7.53-9-6.79-19.21a4.41,4.41,0,0,1,.57-4.71.65.65,0,0,1,0-.31c2.19-12.4,8.49-21.65,14.08-20.67S114.67,123,112.48,135.38Zm103.65,30.33c-2.74,15.56-10.48,27.19-17.29,26-6.21-1.09-9.5-12.52-7.93-26.35a5.24,5.24,0,0,1-1.4-3.6,5.37,5.37,0,0,1,2.9-4.77c3.3-13.3,10.22-22.7,16.37-21.61C215.55,136.57,218.88,150.15,216.13,165.71Z"/><path class="d" d="M205.6,193.93c-24.27-.23-37.92-12.9-37.55-42l-1.78-61.68c-.24-11.15-4.58-12-13.41-1.79l-19.67,42.91c-8.68,17.95-27.4,32.45-46.95,26-6.53-2.14-27.68,6.55-36.29,12.69a11.59,11.59,0,0,0-3.46,3.3c-14.44,27-12,38-3.58,54.52C54.55,250.46,84.62,259,114.42,255.6c17.4,13.8,34.7,23.64,51.89,28.72,2.93.86,5.86,1.58,8.78,2.18a85.52,85.52,0,0,0,55.33-7.14l.11-.06c2.34-1.13,4.67-2.36,7-3.72.68-.39,1.35-.79,2-1.21C258.66,232.53,245.06,206.84,205.6,193.93ZM76.72,178.56c2.41-13.87,20.83-22.26,41.14-18.73s34.83,17.64,32.42,31.51-20.83,22.26-41.14,18.74S74.31,192.44,76.72,178.56Z"/><path class="g" d="M95.65,130.46a4.47,4.47,0,1,1-4,6.37c-.74,10.18,2,18.36,6.79,19.21,5.59,1,11.89-8.27,14.08-20.66s-.58-23.25-6.17-24.24-11.89,8.27-14.08,20.67a.7.7,0,0,1,0,.31A4.43,4.43,0,0,1,95.65,130.46Z"/><path class="h" d="M91.61,136.83c.11-1.53.3-3.11.57-4.71A4.41,4.41,0,0,0,91.61,136.83Z"/><path class="h" d="M95.65,139.4a4.47,4.47,0,1,0-3.47-7.28c-.27,1.6-.46,3.18-.57,4.71A4.44,4.44,0,0,0,95.65,139.4Z"/><path class="g" d="M200.23,161.75a5.35,5.35,0,0,1-9.32,3.6c-1.57,13.83,1.72,25.26,7.93,26.35,6.81,1.2,14.55-10.43,17.29-26s-.55-29.14-7.35-30.34c-6.15-1.09-13.07,8.31-16.37,21.61a5.36,5.36,0,0,1,7.22,2.3,5.42,5.42,0,0,1,.6,2.47Z"/><path class="h" d="M191.49,161.36c.26-1.5.57-3,.92-4.38a5.37,5.37,0,0,0-2.9,4.77,5.24,5.24,0,0,0,1.4,3.6C191.06,164,191.25,162.71,191.49,161.36Z"/><path class="h" d="M190.91,165.35a5.36,5.36,0,1,0,1.5-8.37c-.35,1.42-.66,2.88-.92,4.38C191.25,162.71,191.06,164,190.91,165.35Z"/><path class="g" d="M109.14,210.08c20.31,3.52,38.73-4.86,41.14-18.74s-12.1-28-32.42-31.51-38.73,4.86-41.14,18.73S88.82,206.55,109.14,210.08ZM101,161.75c2.46,0,4.46,1.2,4.46,2.68s-2,2.68-4.46,2.68-4.47-1.2-4.47-2.68S98.55,161.75,101,161.75Z"/><ellipse class="h" cx="101.02" cy="164.43" rx="4.47" ry="2.68"/><path class="f" d="M296.32,341A73.83,73.83,0,0,1,273.8,313.8c-5.89-8.48-11.22-19.58-15.91-33.6-15.51,34.57-38.57,60.18-66.82,79.62,13.69,4.95,25.17,12.48,33.79,22.45q1.15,6.57,2,12.88h107C327.79,376.83,315.69,357.71,296.32,341Z"/></g></svg>