<svg xmlns="http://www.w3.org/2000/svg" xmlns:xlink="http://www.w3.org/1999/xlink" viewBox="0 0 3588 960"><defs><style>.a{fill:url(#a);}.b{fill:url(#b);}.c{fill:#fff;}.d{fill:#366754;}.e{fill:#437461;}</style><linearGradient id="a" x1="1794" y1="-51.35" x2="1794" y2="1093.43" gradientUnits="userSpaceOnUse"><stop offset="0.01" stop-color="#4495ca"/><stop offset="1" stop-color="#fff"/></linearGradient><linearGradient id="b" x1="1794" y1="671.39" x2="1794" y2="991.8" gradientUnits="userSpaceOnUse"><stop offset="0.01" stop-color="#6da17a"/><stop offset="1" stop-color="#7dad8a"/></linearGradient></defs><rect class="a" y="-0.57" width="3588" height="960.5"/><path class="b" d="M3087.69,746.42C2914,873.5,2884,887.5,2809,882.5c-62-4.13-111.72-62.27-228.83-64.19-40.65-.67-79.75-15.1-111.83-40.08C2423,742.91,2369.42,722.5,2312,722.5A242.27,242.27,0,0,0,2221.84,740a226.64,226.64,0,0,1-139.94,9.46c-130-33.08-296-52.92-476.9-52.92-301,0-560.78,54.93-682.07,134.4C861.66,848.76,823.5,879.53,779,882.5c-75,5-105-9-278.69-136.08S87,679.5,39,746.42L0,803.61V960.93H3588V803.61l-39-57.19C3501,679.5,3261.38,619.35,3087.69,746.42Z"/><path class="c" d="M374,477.5c-41-100,315-163,346-13,52.33,3.08,82.16,13.38,58,41,199,37.47,43.78,43.06-132,36,54.54,39.48-219.28,30.83-390,21-10.22-4.21-13.68-9.59,35-24C282.84,519.72,304.56,499.64,374,477.5Z"/><path class="c" d="M2799,529.5c15.3-41.75,45.89-67.08,102-65-3-83,280-85,293,27,238.42,18.82,387.75,28,241,83-40.33,54.06-69.08,20-127,23-169.51,8.75-302,34-232-19C2704.86,589.79,2560,578.65,2799,529.5Z"/><path class="d" d="M487,911.16a42.87,42.87,0,0,1-17,4.63l9.87-22L460.29,897c-3.08-10.49,11.34-20.72,7.37-30.91l-20.88,5.55A36.43,36.43,0,0,0,456,840.28,129,129,0,0,0,433,839a81.23,81.23,0,0,0,1.41-34.1q-12.33,6.9-24.22,14.57a29.47,29.47,0,0,0-.76-12.87q-12.18,3.24-24.05,7.51a132.84,132.84,0,0,0-7.65-15.91,9.42,9.42,0,0,0-2.79-3.45c-4.17-2.7-9.37,2.19-10.68,7s-1.21,10.4-4.79,13.85a32.58,32.58,0,0,0-21.21-12,4.86,4.86,0,0,0-3.09.35c-1.14.69-1.56,2.12-1.88,3.41q-4.31,17.18-8.62,34.34a33.85,33.85,0,0,0-27.86-12,110.38,110.38,0,0,0,8.07,27A388,388,0,0,0,261.5,860c11.67,12.55,14.42,32.52,28.59,42.15a48.62,48.62,0,0,0-28.21,16.47,255.76,255.76,0,0,1,45.34,36.08,101.48,101.48,0,0,0-17,5.8H491.86a33,33,0,0,0,11.85-24.82,88,88,0,0,0-20.57,2.42A135.32,135.32,0,0,0,487,911.16Z"/><path class="d" d="M3585.15,936.24c-1-.7-2.33-.4-3.49-.08l-25.54,7.21a79.74,79.74,0,0,0-4.71-24.69c-6.6,1.33-14.93,2-18.6-3.65-2.53-3.88-1.51-8.94-1.3-13.56s-1.39-10.32-5.92-11.28c-2.31-.49-4.65.47-6.93,1.1a24.94,24.94,0,0,1-9.84.67,4,4,0,0,1-2.82-1.23c-1.3-1.69.32-4.09.09-6.21-.26-2.45-3-3.94-5.49-3.86s-4.74,1.25-7.07,2.05c-11.5,3.94-25.51-2.16-30.45-13.27-2.27,4.89-3.36,10.25-5.36,15.25s-5.23,9.9-10.18,12-11.79.35-13.67-4.7c-4.35,3.77-3.56,12.32-9,14.1-2.24.73-4.64-.11-6.84-.94l-20.77-7.83q2.08,12.74,4.18,25.48L3383.83,920a51.13,51.13,0,0,1,8.05,18.27l-18.19-.44c-2,0-4.18,0-5.51,1.46a6.66,6.66,0,0,0-1.33,4,75.67,75.67,0,0,0,.25,17.28h220.07a40.25,40.25,0,0,0-.81-22.24A3.89,3.89,0,0,0,3585.15,936.24Z"/><path class="e" d="M3309.38,923.91a34.53,34.53,0,0,0-26.64,7.26,82.1,82.1,0,0,0,3.83-28.14,74.5,74.5,0,0,0-23.74,1l2.1-19.6a77.08,77.08,0,0,1-22.39,14.35c-.92-5.06.87-10.18,1.4-15.3s-.88-11.26-5.63-13.25c-2.5-1.05-5.34-.68-8-.29.9-4,1.8-8.23.82-12.23s-4.5-7.71-8.62-7.46a32.73,32.73,0,0,1-14,12.56,112.61,112.61,0,0,1-7.09-21.55l-8.68,3.57c-1.12.46-2.47.9-3.47.22a3.74,3.74,0,0,1-1.24-2.21q-1.76-6.09-3.5-12.18a54,54,0,0,0-21.26,16.26c-.89,1.13-1.89,2.4-3.32,2.58a5.32,5.32,0,0,1-3.13-1l-10.54-5.85a68.16,68.16,0,0,0,5.25,18.67l-28.56,1q2,19.54,4,39.09a212.78,212.78,0,0,1-25.95-2.37,96.89,96.89,0,0,1,2.5,24.59,36,36,0,0,1-21.43-9.25,191.88,191.88,0,0,0,4.24,27l-23.36-1.07L3073,960.5h244.72a123.39,123.39,0,0,1,5-14.74L3305.82,950A139.26,139.26,0,0,0,3309.38,923.91Z"/><path class="e" d="M323.68,930.75l-11.29.3a77.23,77.23,0,0,0,3.13-30.36,52.89,52.89,0,0,0-16.64,4.58,46.17,46.17,0,0,0,10.06-25A99.67,99.67,0,0,0,276.12,883q-.62-19.18-3-38.24a85.08,85.08,0,0,0-8.59,10c3.53-10.24,3-22.47,2-33.6a77.06,77.06,0,0,1-20.34,10.91l-7.35-42.53a25.84,25.84,0,0,1-21.29,15.82,181.11,181.11,0,0,0,3-41l-8.4,7.31a26.11,26.11,0,0,0-17.82-20.94,111.12,111.12,0,0,1-6.11,22.12,378,378,0,0,0-28.87-26.59q-5.7,18.18-11.49,36.33a16.76,16.76,0,0,1-12.91-12.26,70.78,70.78,0,0,0-18.6,49.43,47.3,47.3,0,0,1-35.78-17.19l-5,32.47a34.46,34.46,0,0,1-2.18,8.88A34.39,34.39,0,0,1,68,851.82L55.15,867a66.07,66.07,0,0,1-11.38-25.33,47.73,47.73,0,0,0-13.9,48.22L15.55,885a48.65,48.65,0,0,0,5.75,28.5A100.74,100.74,0,0,0-4,911.93V960.5H312.4c-2.85-1.4-5.7-2.8-8.48-4.31A44.56,44.56,0,0,0,323.68,930.75Z"/></svg>