<?xml version="1.0" standalone="no"?>
<!DOCTYPE svg PUBLIC "-//W3C//DTD SVG 20010904//EN"
 "http://www.w3.org/TR/2001/REC-SVG-20010904/DTD/svg10.dtd">
<svg version="1.0" xmlns="http://www.w3.org/2000/svg"
 width="700.000000pt" height="700.000000pt" viewBox="0 0 700.000000 700.000000"
 preserveAspectRatio="xMidYMid meet">
<metadata>
Created by potrace 1.14, written by Peter Selinger 2001-2017
</metadata>
<g transform="translate(0.000000,700.000000) scale(0.100000,-0.100000)"
fill="#000000" stroke="none">
<path d="M3095 6990 c-33 -9 -121 -30 -146 -35 -20 -4 -102 -30 -159 -50 -297
-104 -630 -389 -863 -738 -117 -175 -314 -542 -342 -637 -4 -14 -11 -29 -15
-35 -4 -5 -17 -37 -30 -70 -13 -33 -32 -73 -43 -90 -23 -34 -97 -105 -111
-105 -5 0 -61 -53 -125 -117 -154 -155 -211 -240 -275 -409 -28 -74 -32 -89
-45 -167 -48 -284 147 -628 434 -765 168 -81 333 -110 645 -116 l125 -2 83
-61 c45 -34 124 -88 175 -120 131 -81 406 -219 455 -228 23 -4 44 -11 48 -16
3 -5 -12 -40 -34 -77 -82 -144 -84 -272 -4 -348 l31 -29 -55 -70 c-72 -92
-130 -189 -144 -244 -20 -76 -6 -123 55 -192 78 -88 95 -138 90 -274 -2 -64
-10 -131 -19 -159 -9 -27 -15 -51 -13 -52 2 -2 57 26 122 61 159 86 152 85
164 33 22 -90 65 -215 110 -322 l47 -111 2 -275 c1 -151 5 -336 7 -410 l5
-136 -44 -46 c-24 -26 -58 -75 -75 -109 -63 -126 -30 -207 99 -243 33 -9 78
-15 100 -12 67 7 178 46 227 79 75 50 81 64 164 335 l22 72 26 -16 c14 -9 41
-32 59 -51 30 -31 33 -40 31 -86 -2 -46 -7 -56 -44 -92 -116 -112 -175 -260
-135 -336 31 -57 122 -109 202 -115 117 -8 300 58 377 137 48 49 74 113 97
241 10 51 22 98 28 104 8 9 51 -1 166 -40 126 -41 155 -55 158 -71 10 -66 29
-90 83 -100 13 -3 35 -13 49 -24 146 -108 271 -81 451 99 115 114 185 217 213
316 27 90 56 248 60 324 3 41 5 76 5 77 1 3 67 20 101 27 79 15 183 64 239
112 67 58 113 146 124 236 6 48 -15 52 -34 7 -16 -41 -149 -174 -219 -220 -57
-38 -160 -92 -196 -103 -19 -6 -22 -2 -29 41 -27 183 -82 381 -144 516 -17 37
-31 69 -31 71 0 8 -92 160 -130 216 -68 99 -198 247 -297 337 -178 162 -244
227 -265 261 -11 18 -18 35 -16 37 2 2 47 -22 100 -55 137 -84 201 -103 338
-104 112 0 268 32 341 69 35 19 34 24 -46 140 -210 303 -500 593 -715 712 -95
53 -163 86 -240 117 -46 19 -85 38 -86 42 -2 5 35 33 81 63 46 29 95 65 110
78 34 32 41 28 140 -64 144 -136 309 -235 455 -272 91 -22 219 -24 298 -4 273
71 483 370 484 691 1 126 -18 199 -89 345 -18 37 -33 69 -33 71 0 2 -20 46
-44 98 -24 52 -90 199 -146 328 -56 129 -110 253 -120 275 -10 22 -33 74 -50
115 -79 183 -186 377 -335 605 -33 50 -64 97 -70 106 -30 49 -254 354 -298
407 -141 169 -349 308 -662 442 -228 98 -416 152 -605 175 -78 10 -374 13
-405 5z"/>
</g>
</svg>
